. 
  
http://www.torrenting.com/        :     Greatest Movie Tracker on The Net!!!
 
http://www.Torrenting.com          :     Once & For all ;)


               www . Torrenting . Com 

(((((((((((((= Enjoy No RAR releases =))))))))))))))))))))


...................................NFO:....................................

.








































          
          
              
              
                    
                    
                    
                    

Marley.And.Me.The.Puppy.Years.2011.BRRip.Xvid.AC3-SiC

Poster:
[img]http://img825.imageshack.us/img825/5120/2bdb4e5b96308b9718453ce.jpg[/img]

IMDB Link:
http://www.imdb.com/title/tt1704614/

Description:
Fall into puppy love with the worlds worst dog,who now has a frisky 
voice and an attitude to match. Join Marley for his mischievous puppy years

MediaInfo:
General
Complete name                    : Marley.And.Me.The.Puppy.Years.2011.BRRip.Xvid.AC3-SiC.avi
Format                           : AVI
Format/Info                      : Audio Video Interleave
File size                        : 1.20 GiB
Duration                         : 1h 26mn
Overall bit rate                 : 1 990 Kbps

Video
ID                               : 0
Format                           : MPEG-4 Visual
Format profile                   : Advanced Simple@L5
Format settings, BVOP            : Yes
Format settings, QPel            : No
Format settings, GMC             : No warppoints
Format settings, Matrix          : Default (H.263)
Muxing mode                      : Packed bitstream
Codec ID                         : XVID
Codec ID/Hint                    : XviD
Duration                         : 1h 26mn
Bit rate                         : 1 598 Kbps
Width                            : 720 pixels
Height                           : 400 pixels
Display aspect ratio             : 16:9
Frame rate                       : 23.976 fps
Resolution                       : 8 bits
Colorimetry                      : 4:2:0
Scan type                        : Progressive
Bits/(Pixel*Frame)               : 0.231
Stream size                      : 984 MiB (80%)
Writing library                  : XviD 64

Audio
ID                               : 1
Format                           : AC-3
Format/Info                      : Audio Coding 3
Format_Settings_ModeExtension    : CM (complete main)
Codec ID                         : 2000
Duration                         : 1h 26mn
Bit rate mode                    : Constant
Bit rate                         : 384 Kbps
Channel(s)                       : 6 channels
Channel positions                : Front: L C R, Side: L R, LFE
Sampling rate                    : 48.0 KHz
Stream size                      : 236 MiB (19%)
Alignment                        : Aligned on interleaves
Interleave, duration             : 64 ms (1.53 video frames)
Interleave, preload duration     : 192 ms
Title                            : 6ch English

Screenshots:
[img]http://img839.imageshack.us/img839/3597/marleyandmethepuppyyear.png[/img]
[img]http://img189.imageshack.us/img189/3597/marleyandmethepuppyyear.png[/img]
[img]http://img3.imageshack.us/img3/3597/marleyandmethepuppyyear.png[/img]
[img]http://img695.imageshack.us/img695/3597/marleyandmethepuppyyear.png[/img]
[img]http://img819.imageshack.us/img819/3597/marleyandmethepuppyyear.png[/img]

Note :   

Source : BluRay-CHD Thanks!!!

Encoder: Bezauk

Enjoy!

Respects to CaptainHomey, Cyanide, CM8, Rx, THC, ELEKTRI4KA, 
Killerhz, PA, YeFsTe, BoxSlots, MrRep and everyone in the struggle...